<svg xmlns="http://www.w3.org/2000/svg">
  <symbol id="power" class="h-6 w-6" fill="none" viewBox="0 0 24 24" stroke="currentColor">
    <path stroke-linecap="round" stroke-linejoin="round" stroke-width="2" d="M13 10V3L4 14h7v7l9-11h-7z" />
  </symbol>

  <symbol id="power-fill" class="h-5 w-5" viewBox="0 0 20 20" fill="currentColor">
    <path fill-rule="evenodd" d="M11.3 1.046A1 1 0 0112 2v5h4a1 1 0 01.82 1.573l-7 10A1 1 0 018 18v-5H4a1 1 0 01-.82-1.573l7-10a1 1 0 011.12-.38z" clip-rule="evenodd" />
  </symbol>

  <symbol id="adjustments" class="h-6 w-6" fill="none" viewBox="0 0 24 24" stroke="currentColor">
    <path stroke-linecap="round" stroke-linejoin="round" stroke-width="2" d="M12 6V4m0 2a2 2 0 100 4m0-4a2 2 0 110 4m-6 8a2 2 0 100-4m0 4a2 2 0 110-4m0 4v2m0-6V4m6 6v10m6-2a2 2 0 100-4m0 4a2 2 0 110-4m0 4v2m0-6V4" />
  </symbol>

  <symbol id="view-grid" class="h-6 w-6" fill="none" viewBox="0 0 24 24" stroke="currentColor">
    <path stroke-linecap="round" stroke-linejoin="round" stroke-width="2" d="M4 6a2 2 0 012-2h2a2 2 0 012 2v2a2 2 0 01-2 2H6a2 2 0 01-2-2V6zM14 6a2 2 0 012-2h2a2 2 0 012 2v2a2 2 0 01-2 2h-2a2 2 0 01-2-2V6zM4 16a2 2 0 012-2h2a2 2 0 012 2v2a2 2 0 01-2 2H6a2 2 0 01-2-2v-2zM14 16a2 2 0 012-2h2a2 2 0 012 2v2a2 2 0 01-2 2h-2a2 2 0 01-2-2v-2z" />
  </symbol>

  <symbol id="exclamation" class="h-6 w-6" fill="none" viewBox="0 0 24 24" stroke="currentColor">
    <path stroke-linecap="round" stroke-linejoin="round" stroke-width="2" d="M12 9v2m0 4h.01m-6.938 4h13.856c1.54 0 2.502-1.667 1.732-3L13.732 4c-.77-1.333-2.694-1.333-3.464 0L3.34 16c-.77 1.333.192 3 1.732 3z" />
  </symbol>

  <symbol id="res" class="h-6 w-6" fill="none" viewBox="0 0 24 24" stroke="currentColor">
    <path stroke-linecap="round" stroke-linejoin="round" stroke-width="2" d="M6 5c7.18 0 13 5.82 13 13M6 11a7 7 0 017 7m-6 0a1 1 0 11-2 0 1 1 0 012 0z" />
  </symbol>

	<symbol id="ban" class="h-6 w-6" fill="none" viewBox="0 0 24 24" stroke="currentColor">
		<path stroke-linecap="round" stroke-linejoin="round" stroke-width="2" d="M18.364 18.364A9 9 0 005.636 5.636m12.728 12.728A9 9 0 015.636 5.636m12.728 12.728L5.636 5.636" />
	</symbol>

	<symbol id="check-circle" class="h-6 w-6" fill="none" viewBox="0 0 24 24" stroke="currentColor">
		<path stroke-linecap="round" stroke-linejoin="round" stroke-width="2" d="M9 12l2 2 4-4m6 2a9 9 0 11-18 0 9 9 0 0118 0z" />
	</symbol>

	<symbol id="info-circle" class="h-5 w-5" viewBox="0 0 20 20" fill="currentColor">
  <path fill-rule="evenodd" d="M18 10a8 8 0 11-16 0 8 8 0 0116 0zm-7-4a1 1 0 11-2 0 1 1 0 012 0zM9 9a1 1 0 000 2v3a1 1 0 001 1h1a1 1 0 100-2v-3a1 1 0 00-1-1H9z" clip-rule="evenodd" />
</symbol>

  <symbol id="ethernet" x="0px" y="0px" viewBox="0 0 503.607 503.607" style="enable-background:new 0 0 503.607 503.607;" xml:space="preserve">
<g transform="translate(1 1)">
	<polygon style="fill:#FFE100;" points="292.77,326.344 208.836,326.344 175.262,200.443 175.262,108.115 326.344,108.115 
		326.344,200.443 	"/>
	<polygon style="fill:#FFA800;" points="309.557,108.115 309.557,200.443 275.984,326.344 292.77,326.344 326.344,200.443 
		326.344,108.115 	"/>
	<polygon style="fill:#FFFFFF;" points="192.049,108.115 192.049,200.443 225.623,326.344 208.836,326.344 175.262,200.443 
		175.262,108.115 	"/>
	<path style="fill:#63D3FD;" d="M208.836,108.115c0,23.502,18.466,41.967,41.967,41.967s41.967-18.466,41.967-41.967H208.836z"/>
	<g>
		<polygon style="fill:#FFE100;" points="217.229,74.541 217.229,15.787 183.656,15.787 183.656,108.115 234.016,108.115 
			234.016,74.541 		"/>
		<polygon style="fill:#FFE100;" points="284.377,15.787 284.377,74.541 267.59,74.541 267.59,108.115 317.951,108.115 
			317.951,15.787 		"/>
	</g>
	<polygon style="fill:#63D3FD;" points="217.229,7.393 217.229,74.541 234.016,74.541 234.016,108.115 267.59,108.115 
		267.59,74.541 284.377,74.541 284.377,7.393 	"/>
	<polygon style="fill:#FFE100;" points="234.016,494.213 267.59,494.213 267.59,326.344 234.016,326.344 	"/>
	<path d="M292.77,334.738h-83.934c-3.357,0-6.715-2.518-8.393-5.875l-33.574-109.115c0-0.839,0-1.679,0-2.518V108.115
		c0-5.036,3.357-8.393,8.393-8.393h151.082c5.036,0,8.393,3.357,8.393,8.393v109.115c0,0.839,0,1.679,0,2.518l-33.574,109.115
		C299.485,332.22,296.128,334.738,292.77,334.738z M214.711,317.951h71.344l31.895-101.561v-99.882H183.656v99.043L214.711,317.951z
		"/>
	<path d="M267.59,502.607h-33.574c-5.036,0-8.393-3.357-8.393-8.393V326.344c0-5.036,3.357-8.393,8.393-8.393h33.574
		c5.036,0,8.393,3.357,8.393,8.393v167.869C275.984,499.249,272.626,502.607,267.59,502.607z M242.41,485.82h16.787V334.738H242.41
		V485.82z"/>
	<path d="M250.803,158.475c-27.698,0-50.361-22.662-50.361-50.361c0-5.036,3.357-8.393,8.393-8.393h83.934
		c5.036,0,8.393,3.357,8.393,8.393C301.164,135.813,278.502,158.475,250.803,158.475z M218.069,116.508
		c3.357,14.269,16.787,25.18,32.734,25.18s28.538-10.911,32.734-25.18H218.069z"/>
	<path d="M267.59,116.508h-33.574c-5.036,0-8.393-3.357-8.393-8.393v-25.18h-8.393c-5.036,0-8.393-3.357-8.393-8.393V7.393
		c0-5.036,3.357-8.393,8.393-8.393h67.148c5.036,0,8.393,3.357,8.393,8.393v67.148c0,5.036-3.357,8.393-8.393,8.393h-8.393v25.18
		C275.984,113.151,272.626,116.508,267.59,116.508z M242.41,99.721h16.787v-25.18c0-5.036,3.357-8.393,8.393-8.393h8.393V15.787
		h-50.361v50.361h8.393c5.036,0,8.393,3.357,8.393,8.393V99.721z"/>
	<path d="M234.016,116.508h-50.361c-5.036,0-8.393-3.357-8.393-8.393V15.787c0-5.036,3.357-8.393,8.393-8.393h33.574
		c5.036,0,8.393,3.357,8.393,8.393v50.361h8.393c5.036,0,8.393,3.357,8.393,8.393v33.574
		C242.41,113.151,239.052,116.508,234.016,116.508z M192.049,99.721h33.574V82.934h-8.393c-5.036,0-8.393-3.357-8.393-8.393V24.18
		h-16.787V99.721z"/>
	<path d="M317.951,116.508H267.59c-5.036,0-8.393-3.357-8.393-8.393V74.541c0-5.036,3.357-8.393,8.393-8.393h8.393V15.787
		c0-5.036,3.357-8.393,8.393-8.393h33.574c5.036,0,8.393,3.357,8.393,8.393v92.328C326.344,113.151,322.987,116.508,317.951,116.508
		z M275.984,99.721h33.574V24.18H292.77v50.361c0,5.036-3.357,8.393-8.393,8.393h-8.393V99.721z"/>
	<path d="M225.623,301.164h-26.859c-5.036,0-8.393-3.357-8.393-8.393s3.357-8.393,8.393-8.393h26.859
		c5.036,0,8.393,3.357,8.393,8.393S230.659,301.164,225.623,301.164z"/>
	<path d="M302.843,301.164h-26.859c-5.036,0-8.393-3.357-8.393-8.393s3.357-8.393,8.393-8.393h26.859
		c5.036,0,8.393,3.357,8.393,8.393S307.879,301.164,302.843,301.164z"/>
	<path d="M225.623,267.59h-37.77c-5.036,0-8.393-3.357-8.393-8.393s3.357-8.393,8.393-8.393h37.77c5.036,0,8.393,3.357,8.393,8.393
		S230.659,267.59,225.623,267.59z"/>
	<path d="M313.754,267.59h-37.771c-5.036,0-8.393-3.357-8.393-8.393s3.357-8.393,8.393-8.393h37.771
		c5.036,0,8.393,3.357,8.393,8.393S317.951,267.59,313.754,267.59z"/>
	<path d="M225.623,234.016H177.78c-5.036,0-8.393-3.357-8.393-8.393s3.357-8.393,8.393-8.393h47.843
		c5.036,0,8.393,3.357,8.393,8.393S230.659,234.016,225.623,234.016z"/>
	<path d="M323.826,234.016h-47.843c-5.036,0-8.393-3.357-8.393-8.393s3.357-8.393,8.393-8.393h47.843
		c5.036,0,8.393,3.357,8.393,8.393S328.023,234.016,323.826,234.016z"/>
	<path d="M225.623,200.443h-50.361c-5.036,0-8.393-3.357-8.393-8.393c0-5.036,3.357-8.393,8.393-8.393h50.361
		c5.036,0,8.393,3.357,8.393,8.393C234.016,197.085,230.659,200.443,225.623,200.443z"/>
	<path d="M326.344,200.443h-50.361c-5.036,0-8.393-3.357-8.393-8.393c0-5.036,3.357-8.393,8.393-8.393h50.361
		c5.036,0,8.393,3.357,8.393,8.393C334.738,197.085,331.38,200.443,326.344,200.443z"/>
	<path d="M385.098,502.607h-268.59c-5.036,0-8.393-3.357-8.393-8.393c0-5.036,3.357-8.393,8.393-8.393h268.59
		c5.036,0,8.393,3.357,8.393,8.393C393.492,499.249,390.134,502.607,385.098,502.607z"/>
</g>
</symbol>
</svg>
